<svg xmlns="http://www.w3.org/2000/svg" viewBox="0 0 512 512" width="512" height="512"><g transform="translate(36.0 313.0) rotate(44.4580634425416 57.5 57.5) scale(1.0 1.0)"><svg width="115" height="115" viewBox="0 0 115 115"><clipPath id="a"><rect width="115" height="115" fill="#0F766E" rx="20" ry="20" stroke-linejoin="round" stroke="#00574F" stroke-width="0"/></clipPath><rect width="115" height="115" fill="#0F766E" rx="20" ry="20" clip-path="url(#a)"/></svg></g><g transform="translate(144.0 203.0) rotate(44.4580634425416 57.5 57.5) scale(1.0 1.0)"><svg width="115" height="115" viewBox="0 0 115 115"><clipPath id="b"><rect width="115" height="115" fill="#0F766E" rx="20" ry="20" stroke-linejoin="round" stroke="#00574F" stroke-width="0"/></clipPath><rect width="115" height="115" fill="#0F766E" rx="20" ry="20" clip-path="url(#b)"/></svg></g><g transform="translate(253.0 93.0) rotate(44.4580634425416 57.5 57.5) scale(1.0 1.0)"><svg width="115" height="115" viewBox="0 0 115 115"><clipPath id="c"><rect width="115" height="115" fill="#0F766E" rx="20" ry="20" stroke-linejoin="round" stroke="#00574F" stroke-width="0"/></clipPath><rect width="115" height="115" fill="#0F766E" rx="20" ry="20" clip-path="url(#c)"/></svg></g><g transform="translate(34.0 95.0) rotate(44.4580634425416 57.5 57.5) scale(1.0 1.0)"><svg width="115" height="115" viewBox="0 0 115 115"><clipPath id="d"><rect width="115" height="115" fill="#0F766E" rx="20" ry="20" stroke-linejoin="round" stroke="#00574F" stroke-width="0"/></clipPath><rect width="115" height="115" fill="#0F766E" rx="20" ry="20" clip-path="url(#d)"/></svg></g><g transform="translate(365.0 203.0) rotate(44.4580634425416 57.5 57.5) scale(1.0 1.0)"><svg width="115" height="115" viewBox="0 0 115 115"><clipPath id="e"><rect width="115" height="115" fill="#0F766E" rx="20" ry="20" stroke-linejoin="round" stroke="#00574F" stroke-width="0"/></clipPath><rect width="115" height="115" fill="#0F766E" rx="20" ry="20" clip-path="url(#e)"/></svg></g><g transform="translate(116.0 198.0) rotate(44.4580634425416 31.0 8.0) scale(1.0 1.0)"><svg width="62" height="16" viewBox="0 0 62 16"><line x2="100%" y1="50%" y2="50%" stroke-width="16" stroke="#0F766E" fill="#fff"/></svg></g><g transform="translate(334.0 199.0) rotate(44.4580634425416 33.5 8.0) scale(1.0 1.0)"><svg width="67" height="16" viewBox="0 0 67 16"><line x2="100%" y1="50%" y2="50%" stroke-width="16" stroke="#0F766E" fill="#fff"/></svg></g><g transform="translate(227.0 198.0) rotate(134.45806344254342 29.5 8.0) scale(1.0 1.0)"><svg width="59" height="16" viewBox="0 0 59 16"><line x2="100%" y1="50%" y2="50%" stroke-width="16" stroke="#0F766E" fill="#fff"/></svg></g><g transform="translate(120.0 307.0) rotate(134.45806344254342 29.0 8.0) scale(1.0 1.0)"><svg width="58" height="16" viewBox="0 0 58 16"><line x2="100%" y1="50%" y2="50%" stroke-width="16" stroke="#0F766E" fill="#fff"/></svg></g></svg>